<?xml version="1.0" standalone="no"?>
<!DOCTYPE svg PUBLIC "-//W3C//DTD SVG 20010904//EN"
 "http://www.w3.org/TR/2001/REC-SVG-20010904/DTD/svg10.dtd">
<svg version="1.0" xmlns="http://www.w3.org/2000/svg"
 width="300.000000pt" height="300.000000pt" viewBox="0 0 300.000000 300.000000"
 preserveAspectRatio="xMidYMid meet">

<g transform="translate(0.000000,300.000000) scale(0.100000,-0.100000)"
fill="#EC2027" stroke="none">
<path d="M0 1500 l0 -1500 1500 0 1500 0 0 1500 0 1500 -1500 0 -1500 0 0
-1500z m2171 429 c135 -152 125 -144 136 -124 10 17 11 17 21 -1 9 -17 0 -33
-57 -105 -68 -84 -98 -115 -105 -108 -12 14 -166 289 -166 297 0 10 100 101
111 102 3 0 30 -27 60 -61z m359 -179 c77 -127 140 -234 140 -236 0 -3 -44 -3
-97 -2 l-97 3 -74 170 c-70 162 -73 172 -61 205 22 63 40 102 45 97 3 -2 68
-109 144 -237z m-1836 106 c123 -51 125 -260 3 -319 -24 -12 -70 -21 -132 -24
l-95 -6 0 -103 0 -104 -60 0 -60 0 0 285 0 285 155 0 c110 0 165 -4 189 -14z
m552 -12 c48 -35 67 -70 72 -129 7 -83 -26 -147 -91 -181 -15 -8 -72 -18 -127
-21 l-100 -6 0 -104 0 -103 -60 0 -60 0 0 286 0 285 169 -3 c153 -3 172 -5
197 -24z m284 -259 l0 -285 -60 0 -60 0 0 285 0 285 60 0 60 0 0 -285z m478
237 l23 -42 -93 -162 -94 -163 -89 0 -88 0 -17 60 -17 61 166 146 c91 81 171
146 176 144 6 -1 20 -21 33 -44z m72 -124 c0 -3 31 -59 70 -125 l69 -118 -90
-3 c-49 -1 -127 -1 -173 0 l-84 3 86 149 85 148 18 -23 c10 -13 19 -27 19 -31z
m322 -59 c25 -57 47 -110 47 -116 1 -10 -29 -13 -119 -13 -110 0 -120 2 -130
21 -6 11 -10 26 -8 34 5 22 142 184 153 181 6 -1 31 -50 57 -107z m-38 -264
c25 -63 46 -120 46 -126 0 -6 -30 15 -66 47 l-65 58 -172 -18 c-95 -10 -199
-21 -232 -26 -33 -5 -82 -10 -110 -12 l-49 -2 -18 59 c-10 33 -18 63 -18 68 0
4 129 7 286 7 250 0 285 2 280 15 -3 8 -9 22 -12 30 -5 12 3 15 39 15 l45 0
46 -115z m278 63 c-87 -159 -148 -258 -158 -258 -18 0 -30 20 -67 115 -19 50
-44 114 -56 143 l-21 52 166 0 166 0 -30 -52z m-2131 -288 c54 -129 57 -140
31 -140 -13 0 -22 12 -31 40 -12 40 -12 40 -62 40 -49 0 -51 -1 -67 -40 -11
-25 -24 -40 -34 -40 -10 0 -18 2 -18 4 0 7 82 220 91 238 21 38 42 14 90 -102z
m1319 -10 c0 -123 -1 -130 -20 -130 -19 0 -20 7 -20 123 0 125 2 137 27 137
10 0 13 -28 13 -130z m148 107 c2 -12 -3 -17 -17 -17 -12 0 -21 6 -21 13 0 31
32 34 38 4z m-752 -47 c8 0 14 -7 14 -15 0 -8 -7 -15 -15 -15 -12 0 -15 -13
-15 -60 0 -45 4 -62 15 -66 27 -11 17 -36 -12 -32 -28 3 -28 4 -31 81 -2 59
-6 77 -17 77 -20 0 -19 19 0 26 8 4 15 17 15 29 0 35 24 37 28 3 2 -16 9 -28
18 -28z m-536 -64 c0 -80 6 -96 35 -96 34 0 44 19 47 90 2 52 6 65 21 68 15 3
17 -6 17 -92 0 -79 -3 -96 -15 -96 -8 0 -15 5 -15 12 0 9 -3 9 -12 0 -7 -7
-28 -12 -48 -12 -53 0 -60 13 -60 107 0 67 3 83 15 83 12 0 15 -14 15 -64z
m356 43 c15 -17 16 -22 4 -29 -10 -6 -20 -4 -31 6 -21 19 -64 15 -64 -6 0 -8
18 -19 45 -27 68 -20 88 -55 50 -93 -13 -13 -33 -20 -60 -20 -39 0 -80 26 -80
50 0 16 37 11 44 -6 8 -21 70 -15 74 7 2 11 -10 19 -40 28 -24 7 -49 18 -55
23 -19 15 -16 65 5 77 30 18 87 13 108 -10z m389 1 c0 -9 -10 -15 -23 -16 -33
-2 -36 -8 -40 -85 -3 -50 -8 -69 -18 -69 -11 0 -14 20 -14 94 l0 94 48 -2 c34
-1 47 -5 47 -16z m225 10 c11 -7 16 -33 19 -95 3 -73 1 -85 -13 -85 -9 0 -16
5 -16 10 0 7 -6 7 -19 0 -27 -14 -84 -13 -99 2 -35 35 2 98 58 98 34 0 54 15
47 34 -8 21 -65 22 -73 1 -4 -8 -12 -15 -19 -15 -25 0 -26 18 -3 39 23 22 90
29 118 11z m318 -88 c3 -87 2 -92 -18 -92 -19 0 -20 6 -20 88 0 49 3 92 7 96
19 19 28 -8 31 -92z m244 86 c21 -16 31 -178 11 -178 -6 0 -15 5 -18 10 -4 7
-12 7 -25 0 -28 -15 -77 -12 -94 6 -34 33 -12 80 42 89 60 11 72 16 72 30 0 8
-11 17 -24 21 -28 7 -66 -3 -66 -17 0 -5 -7 -9 -15 -9 -22 0 -18 27 7 44 27
19 88 21 110 4z m243 -34 c21 -14 26 -14 55 1 18 9 34 14 36 12 6 -5 -85 -87
-96 -87 -4 0 -11 12 -14 28 -4 15 -9 35 -12 45 -7 21 0 21 31 1z"/>
<path d="M472 1693 l3 -78 56 1 c83 2 107 10 125 45 13 26 13 36 3 60 -16 41
-36 49 -119 49 l-71 0 3 -77z"/>
<path d="M1000 1696 c0 -43 5 -78 11 -81 6 -4 40 -4 76 0 83 9 119 38 109 88
-10 52 -37 67 -122 67 l-74 0 0 -74z"/>
<path d="M427 1176 c-9 -27 -17 -51 -17 -53 0 -2 16 -3 36 -3 39 0 39 2 10 75
l-12 30 -17 -49z"/>
<path d="M1598 1093 c-30 -5 -53 -27 -43 -43 9 -14 58 -13 73 2 13 13 17 49 5
47 -5 -1 -20 -4 -35 -6z"/>
<path d="M2155 1091 c-21 -4 -31 -13 -33 -29 -3 -19 1 -22 32 -22 25 0 38 6
46 19 21 40 15 45 -45 32z"/>
</g>
</svg>
